<svg xmlns="http://www.w3.org/2000/svg" viewBox="0 0 512 512">
  <defs>
    <linearGradient id="bg" x1="0" y1="0" x2="1" y2="1">
      <stop offset="0%" stop-color="#1b5b4b"/>
      <stop offset="100%" stop-color="#071411"/>
    </linearGradient>
  </defs>

  <rect width="512" height="512" rx="110" fill="url(#bg)"/>

  <!-- الهلال -->
  <path
    d="M330 105
       C275 125 240 180 240 245
       C240 315 292 370 360 385
       C330 405 292 415 250 415
       C155 415 80 340 80 245
       C80 150 155 75 250 75
       C280 75 307 86 330 105Z"
    fill="#ffffff"
  />

  <!-- القبة -->
  <path
    d="M175 300
       Q256 215 337 300
       L337 345
       L175 345Z"
    fill="#d7b45a"
  />

  <!-- المئذنة -->
  <rect
    x="310"
    y="180"
    width="32"
    height="165"
    rx="8"
    fill="#d7b45a"
  />

  <path
    d="M298 180 L326 145 L354 180Z"
    fill="#d7b45a"
  />

  <!-- الهلال فوق المئذنة -->
  <path
    d="M326 130
       A20 20 0 1 0 345 153
       A15 15 0 1 1 326 130Z"
    fill="#ffffff"
  />

  <!-- باب المسجد -->
  <path
    d="M225 345
       V305
       Q256 275 287 305
       V345Z"
    fill="#071411"
  />
</svg>
